<?xml version="1.0" encoding="UTF-8"?>
<svg xmlns="http://www.w3.org/2000/svg" viewBox="0 0 64 64">
    <defs>
        <linearGradient id="g" x1="0" y1="0" x2="1" y2="1">
            <stop offset="0%" stop-color="#2563eb"/>
            <stop offset="50%" stop-color="#3b82f6"/>
            <stop offset="100%" stop-color="#10b981"/>
        </linearGradient>
    </defs>
    <!-- Rounded square bg -->
    <rect x="2" y="2" width="60" height="60" rx="14" fill="url(#g)"/>
    <!-- Letter B — monogram -->
    <path d="M 18 14 L 18 50 L 38 50 C 46 50 50 45 50 39 C 50 34 47 31 43 30
             C 46 28.5 48 26 48 22 C 48 17 44 14 37 14 L 18 14 Z
             M 25 21 L 35 21 C 39 21 41 22.5 41 25 C 41 27.5 39 29 35 29 L 25 29 L 25 21 Z
             M 25 35 L 36 35 C 40.5 35 43 36.5 43 39.5 C 43 42.5 40.5 44 36 44 L 25 44 L 25 35 Z"
          fill="#ffffff"/>
</svg>
